<svg 
 xmlns="http://www.w3.org/2000/svg"
 xmlns:xlink="http://www.w3.org/1999/xlink"
 width="30px" height="29px">
<path fill-rule="evenodd"  fill="rgb(0, 180, 255)"
 d="M28.028,25.182 L19.652,28.811 C19.363,28.936 19.069,28.998 18.788,28.998 C18.443,28.998 18.115,28.903 17.833,28.716 C17.321,28.376 17.029,27.772 17.029,27.062 L17.029,24.601 L12.972,24.601 C11.630,24.601 10.538,23.497 10.538,22.140 L10.538,17.217 C10.538,16.764 10.902,16.397 11.350,16.397 C11.797,16.397 12.161,16.764 12.161,17.217 L12.161,22.140 C12.161,22.592 12.525,22.960 12.972,22.960 L17.029,22.960 L17.029,7.372 C17.029,6.150 17.901,4.814 19.012,4.332 L25.247,1.630 L12.972,1.630 C12.525,1.630 12.161,1.997 12.161,2.450 L12.161,7.372 C12.161,7.825 11.797,8.193 11.350,8.193 C10.902,8.193 10.538,7.825 10.538,7.372 L10.538,2.450 C10.538,1.093 11.630,-0.011 12.972,-0.011 L27.577,-0.011 C28.919,-0.011 30.011,1.093 30.011,2.450 L30.011,22.140 C30.011,23.364 29.140,24.699 28.028,25.182 ZM28.389,2.450 C28.389,2.320 28.359,2.197 28.306,2.089 L19.652,5.840 C19.129,6.066 18.652,6.796 18.652,7.372 L18.652,27.062 C18.652,27.233 18.696,27.328 18.725,27.346 C18.754,27.364 18.857,27.369 19.012,27.301 L27.389,23.672 C27.912,23.446 28.389,22.715 28.389,22.140 L28.389,2.450 ZM12.737,11.712 C13.054,12.032 13.054,12.552 12.737,12.872 L7.869,17.795 C7.710,17.954 7.502,18.034 7.294,18.034 C7.087,18.034 6.879,17.955 6.720,17.795 C6.403,17.475 6.403,16.955 6.720,16.635 L10.202,13.114 L-0.010,13.114 L-0.010,11.473 L10.202,11.473 L6.720,7.952 C6.403,7.632 6.403,7.111 6.720,6.792 C7.036,6.472 7.551,6.472 7.867,6.792 L12.735,11.714 L12.737,11.712 Z"/>
</svg>