<svg 
 xmlns="http://www.w3.org/2000/svg"
 xmlns:xlink="http://www.w3.org/1999/xlink"
 width="42px" height="33px">
<path fill-rule="evenodd"  fill="rgb(232, 90, 133)"
 d="M38.855,32.991 L3.158,32.991 C1.421,32.991 0.008,31.603 0.008,29.899 L0.008,3.101 C0.008,1.396 1.421,0.009 3.158,0.009 L38.855,0.009 C40.592,0.009 42.005,1.396 42.005,3.101 L42.005,29.899 C42.005,31.603 40.592,32.991 38.855,32.991 ZM39.905,3.101 C39.905,2.532 39.435,2.070 38.855,2.070 L3.158,2.070 C2.578,2.070 2.108,2.532 2.108,3.101 L2.108,29.899 C2.108,30.467 2.578,30.929 3.158,30.929 L38.855,30.929 C39.435,30.929 39.905,30.467 39.905,29.899 L39.905,3.101 ZM35.983,14.535 L35.706,15.372 C35.708,15.403 35.710,15.436 35.710,15.469 L35.710,25.776 C35.710,26.192 35.454,26.569 35.061,26.728 C34.931,26.782 34.794,26.806 34.660,26.806 C34.385,26.809 34.118,26.703 33.917,26.506 L31.510,24.143 L29.104,26.506 C28.803,26.800 28.352,26.887 27.959,26.728 C27.567,26.569 27.310,26.192 27.310,25.776 L27.310,15.469 C27.310,15.436 27.310,15.405 27.315,15.372 L27.037,14.535 L25.330,13.317 L25.983,11.346 L25.330,9.376 L27.037,8.158 L27.691,6.187 L29.801,6.187 L31.508,4.969 L33.215,6.187 L35.326,6.187 L35.979,8.158 L37.686,9.376 L37.690,9.376 L37.037,11.346 L37.690,13.317 L35.983,14.535 ZM29.408,23.286 L30.765,21.954 C31.174,21.552 31.840,21.552 32.249,21.954 L32.251,21.954 L33.608,23.286 L33.608,16.504 L33.215,16.504 L31.508,17.722 L29.801,16.504 L29.408,16.504 L29.408,23.286 ZM35.216,10.163 L34.192,9.431 L33.799,8.248 L32.531,8.248 L31.506,7.516 L30.481,8.248 L29.213,8.248 L28.820,9.431 L27.796,10.163 L28.188,11.346 L27.796,12.530 L28.820,13.261 L29.213,14.445 L30.481,14.445 L31.506,15.176 L32.531,14.445 L33.799,14.445 L34.192,13.261 L35.216,12.530 L34.824,11.346 L35.216,10.163 ZM19.957,22.684 L7.358,22.684 C6.778,22.684 6.308,22.222 6.308,21.653 C6.308,21.084 6.778,20.622 7.358,20.622 L19.957,20.622 C20.536,20.622 21.007,21.084 21.007,21.653 C21.007,22.222 20.536,22.684 19.957,22.684 ZM19.957,18.561 L7.358,18.561 C6.778,18.561 6.308,18.099 6.308,17.530 C6.308,16.962 6.778,16.500 7.358,16.500 L19.957,16.500 C20.536,16.500 21.007,16.962 21.007,17.530 C21.007,18.099 20.536,18.561 19.957,18.561 ZM19.957,14.438 L7.358,14.438 C6.778,14.438 6.308,13.977 6.308,13.408 C6.308,12.839 6.778,12.377 7.358,12.377 L19.957,12.377 C20.536,12.377 21.007,12.839 21.007,13.408 C21.007,13.977 20.536,14.438 19.957,14.438 ZM19.957,8.254 L7.358,8.254 C6.778,8.254 6.308,7.793 6.308,7.224 C6.308,6.655 6.778,6.193 7.358,6.193 L19.957,6.193 C20.536,6.193 21.007,6.655 21.007,7.224 C21.007,7.793 20.536,8.254 19.957,8.254 ZM7.358,24.745 L17.857,24.745 C18.436,24.745 18.907,25.207 18.907,25.776 C18.907,26.345 18.436,26.806 17.857,26.806 L7.358,26.806 C6.778,26.806 6.308,26.345 6.308,25.776 C6.308,25.207 6.778,24.745 7.358,24.745 Z"/>
</svg>